<svg width="1536" height="200" viewBox="0 0 1536 200" fill="none" xmlns="http://www.w3.org/2000/svg">
<g clip-path="url(#clip0_5_21)">
<path opacity="0.4" d="M1536 -244V75.9992C1280 88.4121 1024 87.3084 768 72.6882C512 58.068 256 74.7182 -1.33514e-05 122.639V-244H1536Z" fill="url(#paint0_linear_5_21)"/>
<path opacity="0.4" d="M1536 -244V83.5033C1280 106.431 1024 107.654 768 87.17C512 66.6863 256 81.0758 -1.33514e-05 130.338V-244H1536Z" fill="url(#paint1_linear_5_21)"/>
<path opacity="0.4" d="M1536 -244V62.7846C1280 109.008 1024 126.353 768 114.818C512 103.283 256 109.992 -1.33514e-05 134.944V-244H1536Z" fill="url(#paint2_linear_5_21)"/>
<path opacity="0.4" d="M1536 -244V136.275C1280 117.252 1024 98.9522 768 81.3762C512 63.8001 256 60.1294 -1.33514e-05 70.3642V-244H1536Z" fill="url(#paint3_linear_5_21)"/>
<path opacity="0.4" d="M1536 -244V82.0559C1280 93.886 1024 90.8862 768 73.0566C512 55.227 256 60.7392 -1.33514e-05 89.5933V-244H1536Z" fill="url(#paint4_linear_5_21)"/>
<path opacity="0.4" d="M1536 -244V101.935C1280 114.52 1024 110.724 768 90.5453C512 70.3671 256 71.9299 -1.33514e-05 95.2339V-244H1536Z" fill="url(#paint5_linear_5_21)"/>
<path opacity="0.4" d="M1536 -244V118.573C1280 147.613 1024 150.356 768 126.801C512 103.246 256 87.1679 -1.33514e-05 78.5662V-244H1536Z" fill="url(#paint6_linear_5_21)"/>
<path opacity="0.4" d="M1536 -244V143.636C1280 107.366 1024 84.4476 768 74.8804C512 65.3132 256 56.8785 -1.33514e-05 49.5764V-244H1536Z" fill="url(#paint7_linear_5_21)"/>
<path opacity="0.4" d="M1536 -244V93.0464C1280 116.409 1024 121.787 768 109.183C512 96.5784 256 100.972 -1.33514e-05 122.363V-244H1536Z" fill="url(#paint8_linear_5_21)"/>
<path opacity="0.4" d="M1536 -243.701V83.8191C1280 126.01 1024 136.175 768 114.315C512 92.4552 256 102.883 -1.33514e-05 145.598V-243.701H1536Z" fill="url(#paint9_linear_5_21)"/>
</g>
<defs>
<linearGradient id="paint0_linear_5_21" x1="1536" y1="-244" x2="0" y2="-244" gradientUnits="userSpaceOnUse">
<stop stop-color="#071620"/>
<stop offset="1" stop-color="#071620"/>
</linearGradient>
<linearGradient id="paint1_linear_5_21" x1="1536" y1="-244" x2="0" y2="-244" gradientUnits="userSpaceOnUse">
<stop stop-color="#071620"/>
<stop offset="1" stop-color="#071620"/>
</linearGradient>
<linearGradient id="paint2_linear_5_21" x1="1536" y1="-244" x2="0" y2="-244" gradientUnits="userSpaceOnUse">
<stop stop-color="#071620"/>
<stop offset="1" stop-color="#071620"/>
</linearGradient>
<linearGradient id="paint3_linear_5_21" x1="1536" y1="-244" x2="0" y2="-244" gradientUnits="userSpaceOnUse">
<stop stop-color="#071620"/>
<stop offset="1" stop-color="#071620"/>
</linearGradient>
<linearGradient id="paint4_linear_5_21" x1="1536" y1="-244" x2="0" y2="-244" gradientUnits="userSpaceOnUse">
<stop stop-color="#071620"/>
<stop offset="1" stop-color="#071620"/>
</linearGradient>
<linearGradient id="paint5_linear_5_21" x1="1536" y1="-244" x2="0" y2="-244" gradientUnits="userSpaceOnUse">
<stop stop-color="#071620"/>
<stop offset="1" stop-color="#071620"/>
</linearGradient>
<linearGradient id="paint6_linear_5_21" x1="1536" y1="-244" x2="0" y2="-244" gradientUnits="userSpaceOnUse">
<stop stop-color="#071620"/>
<stop offset="1" stop-color="#071620"/>
</linearGradient>
<linearGradient id="paint7_linear_5_21" x1="1536" y1="-244" x2="0" y2="-244" gradientUnits="userSpaceOnUse">
<stop stop-color="#071620"/>
<stop offset="1" stop-color="#071620"/>
</linearGradient>
<linearGradient id="paint8_linear_5_21" x1="1536" y1="-244" x2="0" y2="-244" gradientUnits="userSpaceOnUse">
<stop stop-color="#071620"/>
<stop offset="1" stop-color="#071620"/>
</linearGradient>
<linearGradient id="paint9_linear_5_21" x1="1536" y1="-243.701" x2="0" y2="-243.701" gradientUnits="userSpaceOnUse">
<stop stop-color="#071620"/>
<stop offset="1" stop-color="#071620"/>
</linearGradient>
<clipPath id="clip0_5_21">
<rect width="1536" height="200" fill="white"/>
</clipPath>
</defs>
</svg>
