<svg width="1536" height="200" viewBox="0 0 1536 200" fill="none" xmlns="http://www.w3.org/2000/svg">
<g clip-path="url(#clip0_5_21)">
<path opacity="0.4" d="M1536 -101V74.627C1408 85.5848 1280 84.0912 1152 70.1463C1024 56.2014 896 68.9043 768 108.255C640 147.606 512 148.29 384 110.31C256 72.3286 128 67.3101 7.82013e-05 95.2541V-101H1536Z" fill="url(#paint0_linear_5_21)"/>
<path opacity="0.4" d="M1536 -101V103.512C1408 113.481 1280 114.132 1152 105.463C1024 96.7949 896 91.4067 768 89.2987C640 87.1907 512 81.0105 384 70.7581C256 60.5056 128 70.3976 7.82013e-05 100.434V-101H1536Z" fill="url(#paint1_linear_5_21)"/>
<path opacity="0.4" d="M1536 -101V98.8973C1408 108.081 1280 109.783 1152 104.004C1024 98.2254 896 92.57 768 87.0381C640 81.5062 512 76.9969 384 73.5103C256 70.0237 128 80.2997 7.82013e-05 104.338V-101H1536Z" fill="url(#paint2_linear_5_21)"/>
<path opacity="0.4" d="M1536 -101V66.7162C1408 100.778 1280 114.031 1152 106.474C1024 98.9176 896 94.7169 768 93.8722C640 93.0276 512 85.7885 384 72.1551C256 58.5216 128 67.9809 7.82013e-05 100.533V-101H1536Z" fill="url(#paint3_linear_5_21)"/>
<path opacity="0.4" d="M1536 -101V74.1034C1408 91.9002 1280 93.7977 1152 79.796C1024 65.7942 896 61.7796 768 67.7522C640 73.7248 512 88.3393 384 111.596C256 134.852 128 120.87 7.82013e-05 69.6489V-101H1536Z" fill="url(#paint4_linear_5_21)"/>
<path opacity="0.4" d="M1536 -101V100.858C1408 101.473 1280 95.8413 1152 83.9626C1024 72.0839 896 72.6788 768 85.7473C640 98.8158 512 93.659 384 70.2769C256 46.8948 128 48.8401 7.82013e-05 76.1128V-101H1536Z" fill="url(#paint5_linear_5_21)"/>
<path opacity="0.4" d="M1536 -101V84.5488C1408 81.121 1280 76.5067 1152 70.7058C1024 64.905 896 63.7589 768 67.2676C640 70.7763 512 84.1454 384 107.375C256 130.605 128 130.711 7.82013e-05 107.694V-101H1536Z" fill="url(#paint6_linear_5_21)"/>
<path opacity="0.4" d="M1536 -101V108.909C1408 121.048 1280 121.673 1152 110.785C1024 99.8963 896 94.6612 768 95.0794C640 95.4977 512 98.5032 384 104.096C256 109.689 128 99.8481 7.82013e-05 74.5747V-101H1536Z" fill="url(#paint7_linear_5_21)"/>
<path opacity="0.4" d="M1536 -101V86.5923C1408 98.0741 1280 98.1242 1152 86.7427C1024 75.3612 896 75.6856 768 87.716C640 99.7464 512 94.0469 384 70.6176C256 47.1883 128 56.0782 7.82013e-05 97.2873V-101H1536Z" fill="url(#paint8_linear_5_21)"/>
<path opacity="0.4" d="M1536 -101V75.2393C1408 98.6102 1280 104.736 1152 93.6163C1024 82.4967 896 86.1422 768 104.553C640 122.963 512 116.14 384 84.0827C256 52.0257 128 46.42 7.82013e-05 67.2658V-101H1536Z" fill="url(#paint9_linear_5_21)"/>
</g>
<defs>
<linearGradient id="paint0_linear_5_21" x1="1536" y1="-101" x2="0" y2="-101" gradientUnits="userSpaceOnUse">
<stop stop-color="#113870"/>
<stop offset="1" stop-color="#113870"/>
</linearGradient>
<linearGradient id="paint1_linear_5_21" x1="1536" y1="-101" x2="0" y2="-101" gradientUnits="userSpaceOnUse">
<stop stop-color="#113870"/>
<stop offset="1" stop-color="#113870"/>
</linearGradient>
<linearGradient id="paint2_linear_5_21" x1="1536" y1="-101" x2="0" y2="-101" gradientUnits="userSpaceOnUse">
<stop stop-color="#113870"/>
<stop offset="1" stop-color="#113870"/>
</linearGradient>
<linearGradient id="paint3_linear_5_21" x1="1536" y1="-101" x2="0" y2="-101" gradientUnits="userSpaceOnUse">
<stop stop-color="#113870"/>
<stop offset="1" stop-color="#113870"/>
</linearGradient>
<linearGradient id="paint4_linear_5_21" x1="1536" y1="-101" x2="0" y2="-101" gradientUnits="userSpaceOnUse">
<stop stop-color="#113870"/>
<stop offset="1" stop-color="#113870"/>
</linearGradient>
<linearGradient id="paint5_linear_5_21" x1="1536" y1="-101" x2="0" y2="-101" gradientUnits="userSpaceOnUse">
<stop stop-color="#113870"/>
<stop offset="1" stop-color="#113870"/>
</linearGradient>
<linearGradient id="paint6_linear_5_21" x1="1536" y1="-101" x2="0" y2="-101" gradientUnits="userSpaceOnUse">
<stop stop-color="#113870"/>
<stop offset="1" stop-color="#113870"/>
</linearGradient>
<linearGradient id="paint7_linear_5_21" x1="1536" y1="-101" x2="0" y2="-101" gradientUnits="userSpaceOnUse">
<stop stop-color="#113870"/>
<stop offset="1" stop-color="#113870"/>
</linearGradient>
<linearGradient id="paint8_linear_5_21" x1="1536" y1="-101" x2="0" y2="-101" gradientUnits="userSpaceOnUse">
<stop stop-color="#113870"/>
<stop offset="1" stop-color="#113870"/>
</linearGradient>
<linearGradient id="paint9_linear_5_21" x1="1536" y1="-101" x2="0" y2="-101" gradientUnits="userSpaceOnUse">
<stop stop-color="#113870"/>
<stop offset="1" stop-color="#113870"/>
</linearGradient>
<clipPath id="clip0_5_21">
<rect width="1536" height="200" fill="white"/>
</clipPath>
</defs>
</svg>
