<svg width="1536" height="200" viewBox="0 0 1536 200" fill="none" xmlns="http://www.w3.org/2000/svg">
<g clip-path="url(#clip0_5_21)">
<g clip-path="url(#clip1_5_21)">
<path opacity="0.4" d="M0 267.89V103.684C128 87.2382 256 84.2028 384 94.5778C512 104.953 640 106.563 768 99.4083C896 92.2535 1024 110.794 1152 155.03C1280 199.266 1408 185.596 1536 114.019V267.89H0Z" fill="url(#paint0_linear_5_21)"/>
<path opacity="0.4" d="M0 268V111.14C128 121.239 256 131.782 384 142.77C512 153.758 640 141.814 768 106.939C896 72.0631 1024 71.1903 1152 104.32C1280 137.451 1408 150.364 1536 143.061V268H0Z" fill="url(#paint1_linear_5_21)"/>
<path opacity="0.4" d="M0 267.89V114.727C128 98.0119 256 94.9762 384 105.62C512 116.265 640 125.195 768 132.412C896 139.628 1024 138.15 1152 127.978C1280 117.806 1408 106.69 1536 94.6319V267.89H0Z" fill="url(#paint2_linear_5_21)"/>
<path opacity="0.4" d="M0 267.89V126.822C128 111.639 256 106.543 384 111.535C512 116.527 640 125.496 768 138.443C896 151.39 1024 153.159 1152 143.75C1280 134.341 1408 117.95 1536 94.5773V267.89H0Z" fill="url(#paint3_linear_5_21)"/>
<path opacity="0.4" d="M0 267.89V140.818C128 137.21 256 138.508 384 144.712C512 150.916 640 138.853 768 108.521C896 78.1891 1024 78.154 1152 108.416C1280 138.678 1408 136.006 1536 100.4V267.89H0Z" fill="url(#paint4_linear_5_21)"/>
<path opacity="0.4" d="M0 267.89V120.83C128 113.323 256 113.616 384 121.71C512 129.803 640 129.69 768 121.37C896 113.05 1024 107.753 1152 105.48C1280 103.206 1408 106.928 1536 116.645V267.89H0Z" fill="url(#paint5_linear_5_21)"/>
<path opacity="0.4" d="M0 268V156.7C128 149.452 256 148.411 384 153.576C512 158.74 640 161.174 768 160.879C896 160.584 1024 143.62 1152 109.987C1280 76.3549 1408 82.2708 1536 127.735V268H0Z" fill="url(#paint6_linear_5_21)"/>
<path opacity="0.4" d="M0 267.89V125.39C128 138.973 256 149.016 384 155.517C512 162.019 640 150.625 768 121.336C896 92.0471 1024 83.7068 1152 96.3153C1280 108.924 1408 116.806 1536 119.962V267.89H0Z" fill="url(#paint7_linear_5_21)"/>
<path opacity="0.4" d="M0 267.89V116.399C128 111.972 256 113.574 384 121.206C512 128.839 640 133.283 768 134.541C896 135.798 1024 137.13 1152 138.537C1280 139.943 1408 131.068 1536 111.911V267.89H0Z" fill="url(#paint8_linear_5_21)"/>
<path opacity="0.4" d="M0 267.89V146.044C128 123.95 256 118.43 384 129.485C512 140.54 640 140.581 768 129.608C896 118.634 1024 121.718 1152 138.858C1280 155.998 1408 143.391 1536 101.035V267.89H0Z" fill="url(#paint9_linear_5_21)"/>
</g>
</g>
<defs>
<linearGradient id="paint0_linear_5_21" x1="0" y1="267.89" x2="1536" y2="267.89" gradientUnits="userSpaceOnUse">
<stop stop-color="#113870"/>
<stop offset="1" stop-color="#113870"/>
</linearGradient>
<linearGradient id="paint1_linear_5_21" x1="0" y1="268" x2="1536" y2="268" gradientUnits="userSpaceOnUse">
<stop stop-color="#113870"/>
<stop offset="1" stop-color="#113870"/>
</linearGradient>
<linearGradient id="paint2_linear_5_21" x1="0" y1="267.89" x2="1536" y2="267.89" gradientUnits="userSpaceOnUse">
<stop stop-color="#113870"/>
<stop offset="1" stop-color="#113870"/>
</linearGradient>
<linearGradient id="paint3_linear_5_21" x1="0" y1="267.89" x2="1536" y2="267.89" gradientUnits="userSpaceOnUse">
<stop stop-color="#113870"/>
<stop offset="1" stop-color="#113870"/>
</linearGradient>
<linearGradient id="paint4_linear_5_21" x1="0" y1="267.89" x2="1536" y2="267.89" gradientUnits="userSpaceOnUse">
<stop stop-color="#113870"/>
<stop offset="1" stop-color="#113870"/>
</linearGradient>
<linearGradient id="paint5_linear_5_21" x1="0" y1="267.89" x2="1536" y2="267.89" gradientUnits="userSpaceOnUse">
<stop stop-color="#113870"/>
<stop offset="1" stop-color="#113870"/>
</linearGradient>
<linearGradient id="paint6_linear_5_21" x1="0" y1="268" x2="1536" y2="268" gradientUnits="userSpaceOnUse">
<stop stop-color="#113870"/>
<stop offset="1" stop-color="#113870"/>
</linearGradient>
<linearGradient id="paint7_linear_5_21" x1="0" y1="267.89" x2="1536" y2="267.89" gradientUnits="userSpaceOnUse">
<stop stop-color="#113870"/>
<stop offset="1" stop-color="#113870"/>
</linearGradient>
<linearGradient id="paint8_linear_5_21" x1="0" y1="267.89" x2="1536" y2="267.89" gradientUnits="userSpaceOnUse">
<stop stop-color="#113870"/>
<stop offset="1" stop-color="#113870"/>
</linearGradient>
<linearGradient id="paint9_linear_5_21" x1="0" y1="267.89" x2="1536" y2="267.89" gradientUnits="userSpaceOnUse">
<stop stop-color="#113870"/>
<stop offset="1" stop-color="#113870"/>
</linearGradient>
<clipPath id="clip0_5_21">
<rect width="1536" height="200" fill="white"/>
</clipPath>
<clipPath id="clip1_5_21">
<rect width="1536" height="198" fill="white" transform="translate(0 70)"/>
</clipPath>
</defs>
</svg>
