<svg width="1536" height="200" viewBox="0 0 1536 200" fill="none" xmlns="http://www.w3.org/2000/svg">
<g clip-path="url(#clip0_5_21)">
<path opacity="0.4" d="M0 453.299V133.3C256 120.887 512 121.991 768 136.611C1024 151.231 1280 134.581 1536 86.6601V453.299H0Z" fill="url(#paint0_linear_5_21)"/>
<path opacity="0.4" d="M0 453.299V125.796C256 102.868 512 101.645 768 122.129C1024 142.613 1280 128.223 1536 78.9606V453.299H0Z" fill="url(#paint1_linear_5_21)"/>
<path opacity="0.4" d="M0 453.299V146.514C256 100.291 512 82.9463 768 94.481C1024 106.016 1280 99.3072 1536 74.3554V453.299H0Z" fill="url(#paint2_linear_5_21)"/>
<path opacity="0.4" d="M0 453.299V73.0239C256 92.0471 512 110.347 768 127.923C1024 145.499 1280 149.17 1536 138.935V453.299H0Z" fill="url(#paint3_linear_5_21)"/>
<path opacity="0.4" d="M0 453.299V127.243C256 115.413 512 118.413 768 136.242C1024 154.072 1280 148.56 1536 119.706V453.299H0Z" fill="url(#paint4_linear_5_21)"/>
<path opacity="0.4" d="M0 453.299V107.364C256 94.7788 512 98.5754 768 118.754C1024 138.932 1280 137.369 1536 114.065V453.299H0Z" fill="url(#paint5_linear_5_21)"/>
<path opacity="0.4" d="M0 453.299V90.7261C256 61.6857 512 58.943 768 82.4979C1024 106.053 1280 122.131 1536 130.733V453.299H0Z" fill="url(#paint6_linear_5_21)"/>
<path opacity="0.4" d="M0 453.299V65.6627C256 101.933 512 124.851 768 134.419C1024 143.986 1280 152.42 1536 159.723V453.299H0Z" fill="url(#paint7_linear_5_21)"/>
<path opacity="0.4" d="M0 453.299V116.253C256 92.8904 512 87.5115 768 100.116C1024 112.721 1280 108.327 1536 86.9364V453.299H0Z" fill="url(#paint8_linear_5_21)"/>
<path opacity="0.4" d="M0 453.299V125.779C256 83.5883 512 73.423 768 95.283C1024 117.143 1280 106.715 1536 64V453.299H0Z" fill="url(#paint9_linear_5_21)"/>
</g>
<defs>
<linearGradient id="paint0_linear_5_21" x1="0" y1="453.299" x2="1536" y2="453.299" gradientUnits="userSpaceOnUse">
<stop stop-color="#071620"/>
<stop offset="1" stop-color="#071620"/>
</linearGradient>
<linearGradient id="paint1_linear_5_21" x1="0" y1="453.299" x2="1536" y2="453.299" gradientUnits="userSpaceOnUse">
<stop stop-color="#071620"/>
<stop offset="1" stop-color="#071620"/>
</linearGradient>
<linearGradient id="paint2_linear_5_21" x1="0" y1="453.299" x2="1536" y2="453.299" gradientUnits="userSpaceOnUse">
<stop stop-color="#071620"/>
<stop offset="1" stop-color="#071620"/>
</linearGradient>
<linearGradient id="paint3_linear_5_21" x1="0" y1="453.299" x2="1536" y2="453.299" gradientUnits="userSpaceOnUse">
<stop stop-color="#071620"/>
<stop offset="1" stop-color="#071620"/>
</linearGradient>
<linearGradient id="paint4_linear_5_21" x1="0" y1="453.299" x2="1536" y2="453.299" gradientUnits="userSpaceOnUse">
<stop stop-color="#071620"/>
<stop offset="1" stop-color="#071620"/>
</linearGradient>
<linearGradient id="paint5_linear_5_21" x1="0" y1="453.299" x2="1536" y2="453.299" gradientUnits="userSpaceOnUse">
<stop stop-color="#071620"/>
<stop offset="1" stop-color="#071620"/>
</linearGradient>
<linearGradient id="paint6_linear_5_21" x1="0" y1="453.299" x2="1536" y2="453.299" gradientUnits="userSpaceOnUse">
<stop stop-color="#071620"/>
<stop offset="1" stop-color="#071620"/>
</linearGradient>
<linearGradient id="paint7_linear_5_21" x1="0" y1="453.299" x2="1536" y2="453.299" gradientUnits="userSpaceOnUse">
<stop stop-color="#071620"/>
<stop offset="1" stop-color="#071620"/>
</linearGradient>
<linearGradient id="paint8_linear_5_21" x1="0" y1="453.299" x2="1536" y2="453.299" gradientUnits="userSpaceOnUse">
<stop stop-color="#071620"/>
<stop offset="1" stop-color="#071620"/>
</linearGradient>
<linearGradient id="paint9_linear_5_21" x1="0" y1="453.299" x2="1536" y2="453.299" gradientUnits="userSpaceOnUse">
<stop stop-color="#071620"/>
<stop offset="1" stop-color="#071620"/>
</linearGradient>
<clipPath id="clip0_5_21">
<rect width="1536" height="200" fill="white"/>
</clipPath>
</defs>
</svg>
